# xmcd
#
# Track frame offsets:
#	150
#	13019
#	32848
#	46182
#	69342
#	89760
#	106604
#	123192
#	139905
#	156135
#	167231
#	178251
#	191194
#	209535
#	233852
#	253928
#	271758
#	287757
#	306245
#	322201
#
# Disc length: 4444 seconds
#
# Revision: 1
# Processed by: cddbd v1.5.2PL0 Copyright (c) Steve Scherf et al.
# Submitted via: audiograbber 1.83.01
#
DISCID=2c115a14
DTITLE=Die anonyme Giddarischde - ZwanZisch
DYEAR=1900
DGENRE=
TTITLE0=Alles weil wir P‰lzer sinn'
TTITLE1=Wo Du mol warscht, des sieht mer glei
TTITLE2=Im Keller
TTITLE3=Die Stadt hot Schloof
TTITLE4=Baumarkt
TTITLE5=Flieg kl‰‰ner Korke flieg
TTITLE6=Palzlied
TTITLE7=Peterles Hochzisch
TTITLE8=P‰lzer Buh
TTITLE9=Die AB-Mick
TTITLE10=Moi liebschtes Programm
TTITLE11=Bildung is L‰ndersache
TTITLE12=Fuchsbach, Eckbach, Isenach
TTITLE13=Heddscht emool Zeit?
TTITLE14=Die Lewwerworscht
TTITLE15=Zu schpeet
TTITLE16=Isch bin de Roadie
TTITLE17=Stille Helden
TTITLE18=P‰lzer d‰rfen des
TTITLE19=Bis zum End
EXTD=
EXTT0=
EXTT1=
EXTT2=
EXTT3=
EXTT4=
EXTT5=
EXTT6=
EXTT7=
EXTT8=
EXTT9=
EXTT10=
EXTT11=
EXTT12=
EXTT13=
EXTT14=
EXTT15=
EXTT16=
EXTT17=
EXTT18=
EXTT19=
PLAYORDER=
